<?xml version="1.0" standalone="no"?>
<!DOCTYPE svg PUBLIC "-//W3C//DTD SVG 20010904//EN"
 "http://www.w3.org/TR/2001/REC-SVG-20010904/DTD/svg10.dtd">
<svg version="1.0" xmlns="http://www.w3.org/2000/svg"
 width="400.000000pt" height="400.000000pt" viewBox="0 0 400.000000 400.000000"
 preserveAspectRatio="xMidYMid meet">
<metadata>
Created by potrace 1.11, written by Peter Selinger 2001-2013
</metadata>
<g transform="translate(0.000000,400.000000) scale(0.100000,-0.100000)"
fill="#000000" stroke="none">
<path d="M851 3140 c-3 -3 -7 -311 -7 -685 0 -374 -3 -705 -7 -735 -30 -237
-151 -351 -368 -345 -105 2 -233 44 -329 108 l-25 16 0 -319 c0 -219 4 -323
12 -331 12 -12 136 -47 198 -55 22 -3 58 -10 80 -15 40 -9 320 -5 361 4 12 3
37 8 55 11 212 35 399 137 516 281 73 90 133 209 163 325 7 25 12 45 12 45 0
0 7 32 16 70 13 59 16 194 19 850 l4 780 -346 0 c-191 0 -350 -2 -354 -5z"/>
<path d="M1808 3140 c0 -3 -2 -127 -2 -276 l-2 -272 317 1 c174 0 320 -3 326
-6 6 -4 10 -321 11 -884 0 -483 1 -881 1 -886 1 -4 160 -6 353 -5 l353 3 1
885 c1 487 2 887 3 890 0 3 148 5 329 5 l327 0 0 272 c0 175 -4 273 -10 274
-33 4 -2005 3 -2007 -1z"/>
</g>
</svg>
